HIERARCHY
ROOT Hips
{
  OFFSET 5.72205e-005 65.662 3.42586
  CHANNELS 6 Xposition Yposition Zposition Zrotation Xrotation Yrotation
  JOINT Chest
  {
    OFFSET 0 8.7983 -4.7612
    CHANNELS 6 Xposition Yposition Zposition Zrotation Xrotation Yrotation
    JOINT Chest2
    {
      OFFSET 0 8.0291 0.4195
      CHANNELS 6 Xposition Yposition Zposition Zrotation Xrotation Yrotation
      JOINT Chest3
      {
        OFFSET 0 9.9351 -2.2114
        CHANNELS 6 Xposition Yposition Zposition Zrotation Xrotation Yrotation
        JOINT Neck
        {
          OFFSET 0 22.3885 -0.4656
          CHANNELS 6 Xposition Yposition Zposition Zrotation Xrotation Yrotation
          JOINT Head
          {
            OFFSET -0.0001 12.643 3.4389
            CHANNELS 6 Xposition Yposition Zposition Zrotation Xrotation Yrotation
            End Site
            {
              OFFSET 0.0001 17.6655 0.5274
            }
          }
        }
        JOINT LeftCollar
        {
          OFFSET 2.2603 21.606 7.4023
          CHANNELS 6 Xposition Yposition Zposition Zrotation Xrotation Yrotation
          JOINT LeftShoulder
          {
            OFFSET 13.5163 -1.1332 -5.0146
            CHANNELS 6 Xposition Yposition Zposition Zrotation Xrotation Yrotation
            JOINT LeftElbow
            {
              OFFSET -0.0995 -28.05 -0.2431
              CHANNELS 6 Xposition Yposition Zposition Zrotation Xrotation Yrotation
              JOINT LeftWrist
              {
                OFFSET 0.0679 -23.3996 -0.1402
                CHANNELS 6 Xposition Yposition Zposition Zrotation Xrotation Yrotation
                JOINT LeftFinger1
                {
                  OFFSET 0.7932 -9.069 2.5189
                  CHANNELS 6 Xposition Yposition Zposition Zrotation Xrotation Yrotation
                  JOINT LeftFinger11
                  {
                    OFFSET -0.8272 -3.3923 0.5977
                    CHANNELS 6 Xposition Yposition Zposition Zrotation Xrotation Yrotation
                    JOINT LeftFinger12
                    {
                      OFFSET -0.5649 -2.3158 0.4082
                      CHANNELS 6 Xposition Yposition Zposition Zrotation Xrotation Yrotation
                      End Site
                      {
                        OFFSET -0.4919 -1.6479 0.2673
                      }
                    }
                  }
                }
                JOINT LeftFinger2
                {
                  OFFSET 0.9159 -9.2044 0.2193
                  CHANNELS 6 Xposition Yposition Zposition Zrotation Xrotation Yrotation
                  JOINT LeftFinger21
                  {
                    OFFSET 0.0117 -4.1944 -0.0248
                    CHANNELS 6 Xposition Yposition Zposition Zrotation Xrotation Yrotation
                    JOINT LeftFinger22
                    {
                      OFFSET 0.0071 -2.3249 -0.0142
                      CHANNELS 6 Xposition Yposition Zposition Zrotation Xrotation Yrotation
                      End Site
                      {
                        OFFSET -0.1475 -2.0882 0.0028
                      }
                    }
                  }
                }
                JOINT LeftFinger3
                {
                  OFFSET 0.6113 -8.7231 -2.0637
                  CHANNELS 6 Xposition Yposition Zposition Zrotation Xrotation Yrotation
                  JOINT LeftFinger31
                  {
                    OFFSET -0.1927 -3.8059 -0.2383
                    CHANNELS 6 Xposition Yposition Zposition Zrotation Xrotation Yrotation
                    JOINT LeftFinger32
                    {
                      OFFSET -0.1091 -2.1688 -0.1362
                      CHANNELS 6 Xposition Yposition Zposition Zrotation Xrotation Yrotation
                      End Site
                      {
                        OFFSET -0.2358 -1.9176 -0.0906
                      }
                    }
                  }
                }
                JOINT LeftFinger4
                {
                  OFFSET -0.6151 -8.0947 -3.5641
                  CHANNELS 6 Xposition Yposition Zposition Zrotation Xrotation Yrotation
                  JOINT LeftFinger41
                  {
                    OFFSET -0.4882 -2.341 -0.6462
                    CHANNELS 6 Xposition Yposition Zposition Zrotation Xrotation Yrotation
                    JOINT LeftFinger42
                    {
                      OFFSET -0.3575 -1.7167 -0.4742
                      CHANNELS 6 Xposition Yposition Zposition Zrotation Xrotation Yrotation
                      End Site
                      {
                        OFFSET -0.4187 -1.5237 -0.3496
                      }
                    }
                  }
                }
                JOINT LeftFinger0
                {
                  OFFSET -1.42 -1.8761 1.4223
                  CHANNELS 6 Xposition Yposition Zposition Zrotation Xrotation Yrotation
                  JOINT LeftFinger01
                  {
                    OFFSET -1.1471 -3.4929 2.6334
                    CHANNELS 6 Xposition Yposition Zposition Zrotation Xrotation Yrotation
                    JOINT LeftFinger02
                    {
                      OFFSET -0.823 -2.3 1.6571
                      CHANNELS 6 Xposition Yposition Zposition Zrotation Xrotation Yrotation
                      End Site
                      {
                        OFFSET -0.5822 -1.6914 1.1582
                      }
                    }
                  }
                }
              }
            }
          }
        }
        JOINT RightCollar
        {
          OFFSET -2.2603 21.606 7.4023
          CHANNELS 6 Xposition Yposition Zposition Zrotation Xrotation Yrotation
          JOINT RightShoulder
          {
            OFFSET -13.5187 -1.1334 -5.0155
            CHANNELS 6 Xposition Yposition Zposition Zrotation Xrotation Yrotation
            JOINT RightElbow
            {
              OFFSET 0.0994 -28.0499 -0.2431
              CHANNELS 6 Xposition Yposition Zposition Zrotation Xrotation Yrotation
              JOINT RightWrist
              {
                OFFSET -0.0679 -23.3996 -0.1402
                CHANNELS 6 Xposition Yposition Zposition Zrotation Xrotation Yrotation
                JOINT RightFinger1
                {
                  OFFSET -0.7932 -9.0691 2.5189
                  CHANNELS 6 Xposition Yposition Zposition Zrotation Xrotation Yrotation
                  JOINT RightFinger11
                  {
                    OFFSET 0.8272 -3.3923 0.5977
                    CHANNELS 6 Xposition Yposition Zposition Zrotation Xrotation Yrotation
                    JOINT RightFinger12
                    {
                      OFFSET 0.565 -2.3158 0.4082
                      CHANNELS 6 Xposition Yposition Zposition Zrotation Xrotation Yrotation
                      End Site
                      {
                        OFFSET 0.4919 -1.6479 0.2673
                      }
                    }
                  }
                }
                JOINT RightFinger2
                {
                  OFFSET -0.916 -9.2044 0.2193
                  CHANNELS 6 Xposition Yposition Zposition Zrotation Xrotation Yrotation
                  JOINT RightFinger21
                  {
                    OFFSET -0.0117 -4.1944 -0.0248
                    CHANNELS 6 Xposition Yposition Zposition Zrotation Xrotation Yrotation
                    JOINT RightFinger22
                    {
                      OFFSET -0.0071 -2.3249 -0.0142
                      CHANNELS 6 Xposition Yposition Zposition Zrotation Xrotation Yrotation
                      End Site
                      {
                        OFFSET 0.1475 -2.0882 0.0028
                      }
                    }
                  }
                }
                JOINT RightFinger3
                {
                  OFFSET -0.6113 -8.7231 -2.0637
                  CHANNELS 6 Xposition Yposition Zposition Zrotation Xrotation Yrotation
                  JOINT RightFinger31
                  {
                    OFFSET 0.1927 -3.8059 -0.2383
                    CHANNELS 6 Xposition Yposition Zposition Zrotation Xrotation Yrotation
                    JOINT RightFinger32
                    {
                      OFFSET 0.1091 -2.1688 -0.1362
                      CHANNELS 6 Xposition Yposition Zposition Zrotation Xrotation Yrotation
                      End Site
                      {
                        OFFSET 0.2358 -1.9176 -0.0906
                      }
                    }
                  }
                }
                JOINT RightFinger4
                {
                  OFFSET 0.6151 -8.0947 -3.564
                  CHANNELS 6 Xposition Yposition Zposition Zrotation Xrotation Yrotation
                  JOINT RightFinger41
                  {
                    OFFSET 0.4882 -2.341 -0.6462
                    CHANNELS 6 Xposition Yposition Zposition Zrotation Xrotation Yrotation
                    JOINT RightFinger42
                    {
                      OFFSET 0.3574 -1.7166 -0.4742
                      CHANNELS 6 Xposition Yposition Zposition Zrotation Xrotation Yrotation
                      End Site
                      {
                        OFFSET 0.4187 -1.5237 -0.3496
                      }
                    }
                  }
                }
                JOINT RightFinger0
                {
                  OFFSET 1.4199 -1.8761 1.4221
                  CHANNELS 6 Xposition Yposition Zposition Zrotation Xrotation Yrotation
                  JOINT RightFinger01
                  {
                    OFFSET 1.1472 -3.4929 2.6336
                    CHANNELS 6 Xposition Yposition Zposition Zrotation Xrotation Yrotation
                    JOINT RightFinger02
                    {
                      OFFSET 0.8229 -2.3 1.6571
                      CHANNELS 6 Xposition Yposition Zposition Zrotation Xrotation Yrotation
                      End Site
                      {
                        OFFSET 0.5822 -1.6914 1.1582
                      }
                    }
                  }
                }
              }
            }
          }
        }
      }
    }
  }
  JOINT RightHip
  {
    OFFSET -9.412 3.9771 -0.7758
    CHANNELS 6 Xposition Yposition Zposition Zrotation Xrotation Yrotation
    JOINT RightKnee
    {
      OFFSET -0.7531 -40.938 0
      CHANNELS 6 Xposition Yposition Zposition Zrotation Xrotation Yrotation
      JOINT RightAnkle
      {
        OFFSET 0 -40.1986 0
        CHANNELS 6 Xposition Yposition Zposition Zrotation Xrotation Yrotation
        JOINT RightToe
        {
          OFFSET 0 -4.4182 9.239
          CHANNELS 6 Xposition Yposition Zposition Zrotation Xrotation Yrotation
          End Site
          {
            OFFSET 0 0 6.1981
          }
        }
      }
    }
  }
  JOINT LeftHip
  {
    OFFSET 9.4119 3.9773 -0.7758
    CHANNELS 6 Xposition Yposition Zposition Zrotation Xrotation Yrotation
    JOINT LeftKnee
    {
      OFFSET 0.7532 -40.9383 0
      CHANNELS 6 Xposition Yposition Zposition Zrotation Xrotation Yrotation
      JOINT LeftAnkle
      {
        OFFSET 0 -40.1986 0
        CHANNELS 6 Xposition Yposition Zposition Zrotation Xrotation Yrotation
        JOINT LeftToe
        {
          OFFSET 0 -4.4182 9.239
          CHANNELS 6 Xposition Yposition Zposition Zrotation Xrotation Yrotation
          End Site
          {
            OFFSET 0 0 6.1981
          }
        }
      }
    }
  }
}
MOTION
Frames:	4
Frame Time:	0.0333333
5.72205e-005 65.662 3.42586 0 0 -0 0 8.7983 -4.7612 0 0 -0 0 8.0291 0.4195 0 0 -0 0 9.9351 -2.2114 0 0 -0 0 22.3885 -0.4656 0 0 -0 -0.0001 12.643 3.4389 0 0 -0 2.2603 21.606 7.4023 0 0 -12.5014 13.5163 -1.1332 -5.0146 88.1196 14.2451 10.6914 -0.0995 -28.05 -0.2431 -0.00160068 -0.00239207 0.000740045 0.0679 -23.3996 -0.1402 -8.4365e-005 7.00714e-005 -9.52055e-007 0.7932 -9.069 2.5189 9.93923e-017 -1.98785e-016 -1.59028e-015 -0.8272 -3.3923 0.5977 9.93923e-017 -5.96354e-016 -1.59028e-015 -0.5649 -2.3158 0.4082 -9.93923e-017 -5.96354e-016 -1.59028e-015 0.9159 -9.2044 0.2193 9.93923e-017 -1.98785e-016 -1.59028e-015 0.0117 -4.1944 -0.0248 -0.0128176 0.00232552 8.52707e-005 0.0071 -2.3249 -0.0142 9.93923e-017 5.96354e-016 -0 0.6113 -8.7231 -2.0637 9.93923e-017 -1.98785e-016 -1.59028e-015 -0.1927 -3.8059 -0.2383 -0.0160551 0.00299681 0.000857156 -0.1091 -2.1688 -0.1362 -2.48481e-016 0 3.18055e-015 -0.6151 -8.0947 -3.5641 9.93923e-017 -1.98785e-016 -1.59028e-015 -0.4882 -2.341 -0.6462 -0.0125865 0.0031206 0.00282719 -0.3575 -1.7167 -0.4742 0 1.98785e-016 -0 -1.42 -1.8761 1.4223 9.93923e-017 -1.98785e-016 -1.59028e-015 -1.1471 -3.4929 2.6334 9.93923e-017 -5.96354e-016 -1.59028e-015 -0.823 -2.3 1.6571 -9.93923e-017 -5.96354e-016 -1.59028e-015 -2.2603 21.606 7.4023 -0.865644 0.16582 7.03859 -13.5187 -1.1334 -5.0155 -88.0329 10.2057 -10.5567 0.0994 -28.0499 -0.2431 0.0015593 -0.00248883 -0.000788628 -0.0679 -23.3996 -0.1402 7.87605e-005 4.10553e-005 1.24965e-005 -0.7932 -9.0691 2.5189 -3.97569e-016 -7.95139e-016 3.18055e-015 0.8272 -3.3923 0.5977 -1.98785e-016 -3.97569e-016 3.18055e-015 0.565 -2.3158 0.4082 -1.98785e-016 0 3.18055e-015 -0.916 -9.2044 0.2193 -3.97569e-016 -7.95139e-016 3.18055e-015 -0.0117 -4.1944 -0.0248 0.0129473 0.00231697 -8.70038e-005 -0.0071 -2.3249 -0.0142 9.93923e-017 -7.95139e-016 1.59028e-015 -0.6113 -8.7231 -2.0637 -3.97569e-016 -7.95139e-016 3.18055e-015 0.1927 -3.8059 -0.2383 0.0163314 0.00303369 -0.000872333 0.1091 -2.1688 -0.1362 3.97569e-016 7.95139e-016 -3.18055e-015 0.6151 -8.0947 -3.564 -3.97569e-016 -7.95139e-016 3.18055e-015 0.4882 -2.341 -0.6462 0.0145763 0.00367772 -0.00326275 0.3574 -1.7166 -0.4742 9.93923e-017 -3.97569e-016 -0 1.4199 -1.8761 1.4221 -3.97569e-016 -7.95139e-016 3.18055e-015 1.1472 -3.4929 2.6336 -1.98785e-016 -3.97569e-016 3.18055e-015 0.8229 -2.3 1.6571 -1.98785e-016 0 3.18055e-015 -9.412 3.9771 -0.7758 3.42482 1.32465 -0.0626183 -0.7531 -40.938 0 0.000117508 0.717283 0.000978199 0 -40.1986 0 -3.4257 -2.04197 -0.0604716 8.88178e-016 -4.4182 9.239 6.47761e-025 0 -0 9.4119 3.9773 -0.7758 -3.42483 1.34017 0.0627307 0.7532 -40.9383 -2.22045e-016 -0.000193936 0.682302 -0.0013703 -8.88179e-016 -40.1986 0 3.42574 -2.02253 0.0595886 -8.88178e-016 -4.4182 9.239 -8.45714e-024 0 -7.40531e-025 
-4.55854 9.28377 8.0247 -1.3262e-012 -8.09725e-008 -90.0019 0 8.7983 -4.7612 -0.334934 3.09359 -0.204071 8.88178e-016 8.0291 0.4195 -0.660261 6.18833 -0.390825 0 9.9351 -2.2114 -0.660259 6.18829 -0.39084 0 22.3885 -0.4656 0.0718558 0.0855195 -0.222129 -0.0001 12.643 3.4389 0.160016 0.231912 -0.4427 2.2603 21.606 7.4023 -23.5398 2.2715 -18.8044 13.5163 -1.1332 -5.0146 80.6209 -0.73094 7.84277 -0.0995 -28.05 -0.2431 -42.2767 -13.6544 3.69466 0.0679 -23.3996 -0.1402 33.5907 -5.43071 2.72821 0.7932 -9.069 2.5189 5.09402e-006 -6.70522e-006 -5.88715e-006 -0.8272 -3.3923 0.5977 -3.18055e-015 -2.36183e-006 -3.18055e-015 -0.5649 -2.3158 0.4082 3.18055e-015 1.59028e-015 1.59028e-015 0.9159 -9.2044 0.2193 5.09402e-006 -6.70522e-006 -5.88715e-006 0.0117 -4.1944 -0.0248 -0.0128197 0.00232443 9.07882e-005 0.0071 -2.3249 -0.0142 3.18055e-015 4.77083e-015 -6.36111e-015 0.6113 -8.7231 -2.0637 5.09402e-006 -6.70522e-006 -5.88715e-006 -0.1927 -3.8059 -0.2383 -0.016029 0.00299392 0.000860968 -0.1091 -2.1688 -0.1362 8.82781e-032 1.59028e-015 -3.18055e-015 -0.6151 -8.0947 -3.5641 5.09402e-006 -6.70522e-006 -5.88715e-006 -0.4882 -2.341 -0.6462 -0.0126243 0.00313165 0.00284263 -0.3575 -1.7167 -0.4742 3.8289e-007 -9.3719e-007 -1.90125e-007 -1.42 -1.8761 1.4223 5.09402e-006 -6.70522e-006 -5.88715e-006 -1.1471 -3.4929 2.6334 -3.18055e-015 -2.36183e-006 -3.18055e-015 -0.823 -2.3 1.6571 3.18055e-015 1.59028e-015 1.59028e-015 -2.2603 21.606 7.4023 11.8017 -0.0426127 10.0925 -13.5187 -1.1334 -5.0155 -37.6853 8.62871 10.7944 0.0994 -28.0499 -0.2431 -30.5112 -27.1363 -30.7279 -0.0679 -23.3996 -0.1402 -23.8537 13.0852 9.1496 -0.7932 -9.0691 2.5189 3.18055e-015 0 -3.97569e-016 0.8272 -3.3923 0.5977 -0 -1.59028e-015 -0 0.565 -2.3158 0.4082 3.18055e-015 -7.95139e-016 -0 -0.916 -9.2044 0.2193 3.18055e-015 0 -3.97569e-016 -0.0117 -4.1944 -0.0248 0.0129401 0.00231146 -7.361e-005 -0.0071 -2.3249 -0.0142 -6.36111e-015 0 3.97569e-016 -0.6113 -8.7231 -2.0637 3.18055e-015 0 -3.97569e-016 0.1927 -3.8059 -0.2383 0.0163182 0.00303438 -0.00086236 0.1091 -2.1688 -0.1362 -3.18055e-015 -2.38542e-015 -0 0.6151 -8.0947 -3.564 3.18055e-015 0 -3.97569e-016 0.4882 -2.341 -0.6462 0.0146351 0.00369512 -0.00327429 0.3574 -1.7166 -0.4742 -3.18055e-015 7.95139e-016 3.97569e-016 1.4199 -1.8761 1.4221 3.18055e-015 0 -3.97569e-016 1.1472 -3.4929 2.6336 -0 -1.59028e-015 -0 0.8229 -2.3 1.6571 3.18055e-015 -7.95139e-016 -0 -9.412 3.9771 -0.7758 -132.618 -55.8532 -144.345 -0.7531 -40.938 0 -170.038 58.6142 168.807 1.77636e-015 -40.1986 -7.10543e-015 -3.36119 -8.11302 -2.36705 -1.77636e-015 -4.4182 9.239 1.19271e-014 -9.751e-007 -0 9.4119 3.9773 -0.7758 132.651 -55.8641 144.365 0.7532 -40.9383 -3.55271e-015 170.103 58.6142 -168.875 0 -40.1986 7.10543e-015 3.37551 -8.11632 2.39689 1.77636e-015 -4.4182 9.239 -1.94129e-006 -3.41422e-007 -1.38842e-005 
-4.49617 9.6242 8.02461 0.443649 -1.16869e-005 -90.0028 1.77636e-015 8.7983 -4.7612 -0.332516 3.48512 -0.207801 0 8.0291 0.4195 -0.65415 6.97089 -0.396527 1.77636e-015 9.9351 -2.2114 -0.654149 6.97088 -0.396533 -8.88178e-016 22.3885 -0.4656 0.133544 0.18224 -0.445655 -0.0001 12.643 3.4389 0.256274 0.498316 -0.895984 2.2603 21.606 7.4023 -23.0536 1.69739 -19.5488 13.5163 -1.1332 -5.0146 80.6209 -0.73097 7.84276 -0.0995 -28.05 -0.2431 -42.2766 -13.6544 3.69473 0.0679 -23.3996 -0.1402 34.1333 -6.08757 4.21902 0.7932 -9.069 2.5189 3.18055e-015 0 4.77083e-015 -0.8272 -3.3923 0.5977 -3.73617e-006 6.39957e-006 -2.10387e-006 -0.5649 -2.3158 0.4082 6.36111e-015 1.27222e-014 3.18055e-015 0.9159 -9.2044 0.2193 3.18055e-015 0 4.77083e-015 0.0117 -4.1944 -0.0248 -0.0128078 0.00231946 8.92763e-005 0.0071 -2.3249 -0.0142 3.39179e-006 3.65505e-006 -3.27117e-006 0.6113 -8.7231 -2.0637 3.18055e-015 0 4.77083e-015 -0.1927 -3.8059 -0.2383 -0.0160472 0.00299528 0.000859608 -0.1091 -2.1688 -0.1362 9.54166e-015 0 -1.59028e-015 -0.6151 -8.0947 -3.5641 3.18055e-015 0 4.77083e-015 -0.4882 -2.341 -0.6462 -0.0125291 0.00310417 0.00282581 -0.3575 -1.7167 -0.4742 -8.50813e-006 1.0209e-005 -5.5917e-006 -1.42 -1.8761 1.4223 3.18055e-015 0 4.77083e-015 -1.1471 -3.4929 2.6334 -3.73617e-006 6.39957e-006 -2.10387e-006 -0.823 -2.3 1.6571 6.36111e-015 1.27222e-014 3.18055e-015 -2.2603 21.606 7.4023 12.192 -0.569489 11.1992 -13.5187 -1.1334 -5.0155 -38.4986 8.7144 10.8166 0.0994 -28.0499 -0.2431 -30.3995 -26.769 -30.6862 -0.0679 -23.3996 -0.1402 -24.0603 12.9427 7.36514 -0.7932 -9.0691 2.5189 -3.18055e-015 -1.11319e-014 3.97569e-016 0.8272 -3.3923 0.5977 2.18339e-006 2.19605e-006 3.01679e-006 0.565 -2.3158 0.4082 0 7.95139e-016 -0 -0.916 -9.2044 0.2193 -3.18055e-015 -1.11319e-014 3.97569e-016 -0.0117 -4.1944 -0.0248 0.0129607 0.00231398 -8.25468e-005 -0.0071 -2.3249 -0.0142 3.31043e-032 1.59028e-015 -1.19271e-015 -0.6113 -8.7231 -2.0637 -3.18055e-015 -1.11319e-014 3.97569e-016 0.1927 -3.8059 -0.2383 0.0163223 0.00304489 -0.000885518 0.1091 -2.1688 -0.1362 -1.10348e-032 7.95139e-016 7.95139e-016 0.6151 -8.0947 -3.564 -3.18055e-015 -1.11319e-014 3.97569e-016 0.4882 -2.341 -0.6462 0.0145711 0.00366696 -0.00325527 0.3574 -1.7166 -0.4742 -3.18055e-015 -1.59028e-015 1.98785e-015 1.4199 -1.8761 1.4221 -3.18055e-015 -1.11319e-014 3.97569e-016 1.1472 -3.4929 2.6336 2.18339e-006 2.19605e-006 3.01679e-006 0.8229 -2.3 1.6571 0 7.95139e-016 -0 -9.412 3.9771 -0.7758 -132.679 -55.8365 -144.373 -0.7531 -40.938 1.77636e-015 -169.964 59.0302 168.766 1.77636e-015 -40.1986 -7.10543e-015 -3.20868 -8.23635 -2.39374 1.77636e-015 -4.4182 9.239 1.11319e-014 -2.10712e-014 3.18055e-015 9.4119 3.9773 -0.7758 132.712 -55.8472 144.393 0.7532 -40.9383 -1.77636e-015 170.031 59.0308 -168.836 0 -40.1986 0 3.22396 -8.23916 2.42169 -1.77636e-015 -4.4182 9.239 1.54487e-031 -2.78299e-015 3.18055e-015 
-4.43353 9.9651 8.02453 0.887787 -2.91896e-005 -90.0037 1.77636e-015 8.7983 -4.7612 -0.329926 3.87935 -0.211673 -8.88178e-016 8.0291 0.4195 -0.647686 7.75947 -0.402235 0 9.9351 -2.2114 -0.647688 7.75946 -0.402231 -8.88178e-016 22.3885 -0.4656 0.195623 0.278836 -0.669326 -0.0001 12.643 3.4389 0.354781 0.764339 -1.35037 2.2603 21.606 7.4023 -22.5745 1.11627 -20.2892 13.5163 -1.1332 -5.0146 80.6209 -0.73098 7.84277 -0.0995 -28.05 -0.2431 -42.2766 -13.6544 3.69475 0.0679 -23.3996 -0.1402 34.6957 -6.73229 5.72315 0.7932 -9.069 2.5189 9.89099e-006 -2.8773e-006 -5.99601e-006 -0.8272 -3.3923 0.5977 -3.18055e-015 1.59028e-015 4.77083e-015 -0.5649 -2.3158 0.4082 -3.18055e-015 -3.18055e-015 1.59028e-015 0.9159 -9.2044 0.2193 9.89099e-006 -2.8773e-006 -5.99601e-006 0.0117 -4.1944 -0.0248 -0.0128678 0.00233854 8.25243e-005 0.0071 -2.3249 -0.0142 1.31769e-005 -5.68265e-007 1.10531e-005 0.6113 -8.7231 -2.0637 9.89099e-006 -2.8773e-006 -5.99601e-006 -0.1927 -3.8059 -0.2383 -0.0160557 0.00299952 0.000861118 -0.1091 -2.1688 -0.1362 -2.39035e-006 -2.77251e-007 1.03071e-006 -0.6151 -8.0947 -3.5641 9.89099e-006 -2.8773e-006 -5.99601e-006 -0.4882 -2.341 -0.6462 -0.0126009 0.00313434 0.00283538 -0.3575 -1.7167 -0.4742 -2.04166e-006 -3.42819e-006 8.48145e-007 -1.42 -1.8761 1.4223 9.89099e-006 -2.8773e-006 -5.99601e-006 -1.1471 -3.4929 2.6334 -3.18055e-015 1.59028e-015 4.77083e-015 -0.823 -2.3 1.6571 -3.18055e-015 -3.18055e-015 1.59028e-015 -2.2603 21.606 7.4023 12.5933 -1.08973 12.3119 -13.5187 -1.1334 -5.0155 -39.3134 8.79877 10.8402 0.0994 -28.0499 -0.2431 -30.2873 -26.4008 -30.6449 -0.0679 -23.3996 -0.1402 -24.2721 12.8059 5.57357 -0.7932 -9.0691 2.5189 3.18055e-015 3.18055e-015 1.07344e-014 0.8272 -3.3923 0.5977 -3.18055e-015 3.97569e-015 1.11319e-014 0.565 -2.3158 0.4082 9.54166e-015 4.77083e-015 1.11319e-014 -0.916 -9.2044 0.2193 3.18055e-015 3.18055e-015 1.07344e-014 -0.0117 -4.1944 -0.0248 0.0129715 0.00231519 -7.98467e-005 -0.0071 -2.3249 -0.0142 5.51738e-033 7.95139e-016 -3.97569e-016 -0.6113 -8.7231 -2.0637 3.18055e-015 3.18055e-015 1.07344e-014 0.1927 -3.8059 -0.2383 0.0163394 0.00303313 -0.000868112 0.1091 -2.1688 -0.1362 -9.54166e-015 7.95139e-016 -3.97569e-016 0.6151 -8.0947 -3.564 3.18055e-015 3.18055e-015 1.07344e-014 0.4882 -2.341 -0.6462 0.0145575 0.00367026 -0.00325054 0.3574 -1.7166 -0.4742 3.18055e-015 -7.95139e-016 -1.19271e-015 1.4199 -1.8761 1.4221 3.18055e-015 3.18055e-015 1.07344e-014 1.1472 -3.4929 2.6336 -3.18055e-015 3.97569e-015 1.11319e-014 0.8229 -2.3 1.6571 9.54166e-015 4.77083e-015 1.11319e-014 -9.412 3.9771 -0.7758 -132.74 -55.8198 -144.401 -0.7531 -40.938 -1.77636e-015 -169.889 59.4462 168.724 -1.77636e-015 -40.1986 7.10543e-015 -3.05636 -8.36035 -2.42022 1.77636e-015 -4.4182 9.239 -2.19226e-006 1.47804e-006 6.24631e-006 9.4119 3.9773 -0.7758 132.773 -55.8304 144.421 0.7532 -40.9383 3.55271e-015 169.957 59.4474 -168.795 -1.77636e-015 -40.1986 0 3.07247 -8.36256 2.44637 0 -4.4182 9.239 1.19809e-006 5.25609e-007 6.23875e-006 
